<svg width="25" height="25" viewBox="0 0 25 25" fill="none" xmlns="http://www.w3.org/2000/svg">
<g clip-path="url(#clip0)">
<path d="M19.6375 1.41548C18.8253 0.502685 17.6995 0 16.4674 0C15.0921 0 13.8999 0.650292 13.0198 1.88051C12.9538 1.97275 12.8921 2.06499 12.8342 2.15629C12.7764 2.06494 12.7147 1.97275 12.6487 1.88051C11.7685 0.650292 10.5764 0 9.20107 0C7.96894 0 6.84306 0.502685 6.03091 1.41543C5.2602 2.28164 4.83569 3.43964 4.83569 4.67611C4.83569 6.01981 5.35713 7.2597 6.47651 8.57825C7.45322 9.72864 8.85419 10.9111 10.4765 12.2803C11.0759 12.7864 11.6958 13.3095 12.3546 13.8805C12.4922 13.9997 12.6632 14.0594 12.8342 14.0594C13.0051 14.0594 13.1761 13.9997 13.3138 13.8805C13.9724 13.3097 14.5922 12.7865 15.1917 12.2806C16.2335 11.4012 17.1333 10.6418 17.9141 9.90516C19.43 8.47489 20.8327 6.8515 20.8327 4.67616C20.8327 3.43964 20.4083 2.28169 19.6375 1.41548ZM16.9091 8.83988C16.1578 9.54871 15.2723 10.296 14.2471 11.1614C13.791 11.5463 13.3232 11.9411 12.8342 12.3604C12.3451 11.9411 11.8772 11.5462 11.4211 11.1612C8.22778 8.46595 6.30024 6.8391 6.30024 4.67616C6.30014 2.84526 7.54721 1.4646 9.20102 1.4646C10.0846 1.4646 10.836 1.88051 11.4344 2.70078C11.9255 3.37392 12.1271 4.07177 12.1285 4.07646C12.2163 4.39369 12.505 4.61332 12.8342 4.61332C13.1633 4.61332 13.452 4.39369 13.5399 4.07646C13.5471 4.05033 14.2884 1.4646 16.4674 1.4646C18.1211 1.4646 19.3682 2.84531 19.3682 4.67616C19.3682 6.00277 18.6787 7.17015 16.9091 8.83988Z" fill="#FF9903"/>
<path d="M22.8003 14.7483C22.1929 14.7483 21.6069 15.0034 21.1927 15.448L19.0405 17.7584C18.7623 16.8641 17.927 16.2129 16.9423 16.2129H13.5595C13.0859 16.2129 12.6292 16.0406 12.2737 15.7277C10.3614 14.0449 7.4871 14.0301 5.55668 15.6811C5.15858 15.1175 4.50263 14.7484 3.76161 14.7484H0.73496C0.330566 14.7484 0.00268555 15.0762 0.00268555 15.4807V24.2678C0.00268555 24.6721 0.330517 25 0.73496 25H3.76161C4.41923 25 5.00985 24.7092 5.41278 24.2498L5.84642 24.3717C7.32972 24.7886 8.86302 25 10.4038 25H16.9423C18.547 25 20.08 24.2335 21.0429 22.9496L24.5584 18.2623C24.5585 18.2622 24.5585 18.2621 24.5586 18.262C24.8455 17.8795 24.9971 17.4241 24.9971 16.9451C24.9971 15.7338 24.0116 14.7483 22.8003 14.7483ZM4.49389 22.8032C4.49389 23.2069 4.16542 23.5354 3.76161 23.5354H1.46718V16.2128H3.76161C4.16537 16.2128 4.49389 16.5413 4.49389 16.9451V22.8032ZM23.3869 17.3834C23.3869 17.3835 23.3869 17.3835 23.3868 17.3835L19.8713 22.071C19.1835 22.988 18.0885 23.5355 16.9423 23.5355H10.4039C8.99715 23.5355 7.59715 23.3425 6.24286 22.9618L5.95648 22.8813C5.95741 22.8553 5.95848 22.8294 5.95848 22.8032V17.2761L6.46879 16.827C7.84769 15.6137 9.92732 15.6136 11.3063 16.827C11.9294 17.3753 12.7296 17.6773 13.5596 17.6773H16.9424C17.3462 17.6773 17.6747 18.0058 17.6747 18.4096C17.6747 18.8133 17.3462 19.1418 16.9424 19.1418H11.7381C11.3337 19.1418 11.0058 19.4697 11.0058 19.8741C11.0058 20.2785 11.3336 20.6064 11.7381 20.6064H17.4331C18.0405 20.6064 18.6264 20.3514 19.0405 19.9069L22.2643 16.4462C22.4045 16.2957 22.5949 16.2128 22.8003 16.2128C23.2041 16.2128 23.5326 16.5413 23.5326 16.9451C23.5326 17.1048 23.4822 17.2563 23.3869 17.3834Z" fill="#FF9903"/>
</g>
<defs>
<clipPath id="clip0">
<rect width="25" height="25" fill="white"/>
</clipPath>
</defs>
</svg>
