<svg width="25" height="25" viewBox="0 0 25 25" fill="none" xmlns="http://www.w3.org/2000/svg">
<path d="M21.582 8.76519V4.15039C21.582 3.7459 21.2541 3.41797 20.8496 3.41797H16.2348L13.0168 0.213428C12.731 -0.0711426 12.2689 -0.0711426 11.9832 0.213428L8.76519 3.41797H4.15039C3.7459 3.41797 3.41797 3.7459 3.41797 4.15039V8.76519L0.213428 11.9832C-0.0711426 12.269 -0.0711426 12.7311 0.213428 13.0168L3.41797 16.2348V20.8496C3.41797 21.2541 3.7459 21.582 4.15039 21.582H8.76519L11.9832 24.7866C12.1261 24.9289 12.313 25 12.5 25C12.687 25 12.8739 24.9289 13.0168 24.7866L16.2348 21.582H20.8496C21.2541 21.582 21.582 21.2541 21.582 20.8496V16.2348L24.7866 13.0168C25.0711 12.7311 25.0711 12.269 24.7866 11.9832L21.582 8.76519ZM20.3306 15.4155C20.1939 15.5528 20.1172 15.7386 20.1172 15.9323V20.1172H15.9323C15.7386 20.1172 15.5528 20.1939 15.4155 20.3306L12.5 23.2339L9.58452 20.3306C9.44722 20.1939 9.26143 20.1172 9.06772 20.1172H4.88281V15.9323C4.88281 15.7386 4.80605 15.5528 4.66938 15.4155L1.76606 12.5L4.66938 9.58452C4.80605 9.44722 4.88281 9.26143 4.88281 9.06772V4.88281H9.06768C9.26138 4.88281 9.44722 4.80605 9.58447 4.66938L12.5 1.76606L15.4155 4.66938C15.5528 4.80605 15.7386 4.88281 15.9323 4.88281H20.1172V9.06768C20.1172 9.26138 20.1939 9.44722 20.3306 9.58447L23.2339 12.5L20.3306 15.4155Z" fill="#FF9903"/>
<path d="M17.2078 12.6622C16.9563 12.5028 16.6332 12.5116 16.3907 12.6845C15.8877 13.043 15.3022 13.2324 14.6973 13.2324C13.0818 13.2324 11.7676 11.9182 11.7676 10.3027C11.7676 9.69779 11.957 9.11225 12.3155 8.60937C12.4884 8.36684 12.4972 8.04379 12.3378 7.79223C12.1784 7.54067 11.8824 7.41059 11.5894 7.46342C9.14624 7.90317 7.37305 10.0214 7.37305 12.5C7.37305 15.327 9.673 17.6269 12.5 17.6269C14.9786 17.6269 17.0968 15.8537 17.5366 13.4106C17.5894 13.1175 17.4594 12.8216 17.2078 12.6622ZM12.5 16.1621C10.4807 16.1621 8.83789 14.5193 8.83789 12.5C8.83789 11.2859 9.43433 10.1929 10.3726 9.52519C10.3263 9.78017 10.3027 10.0401 10.3027 10.3027C10.3027 12.7259 12.2741 14.6973 14.6973 14.6973C14.9599 14.6973 15.2198 14.6737 15.4749 14.6274C14.8071 15.5657 13.7141 16.1621 12.5 16.1621Z" fill="#FDFDFD"/>
</svg>
