<svg width="44" height="44" viewBox="0 0 44 44" fill="none" xmlns="http://www.w3.org/2000/svg">
<g clip-path="url(#clip0)">
<path d="M22 44C34.1503 44 44 34.1503 44 22C44 9.84974 34.1503 0 22 0C9.84974 0 0 9.84974 0 22C0 34.1503 9.84974 44 22 44Z" fill="#ECE5DD"/>
<path d="M22 44C34.1503 44 44 34.1503 44 22C44 9.84974 34.1503 0 22 0C9.84974 0 0 9.84974 0 22C0 34.1503 9.84974 44 22 44Z" fill="#ECE5DD"/>
<path d="M43.9999 22C43.9999 15.8682 41.4904 10.3234 37.4437 6.33374L24.8694 16.2608L21.0433 17.2173L8.60858 8.60868L5.41617 7.54451C4.9913 8.03152 4.58816 8.53787 4.20703 9.06114L31.7242 41.7378C38.9967 38.1481 43.9999 30.6589 43.9999 22Z" fill="#D9CBBD"/>
<path d="M44.0002 22C44.0002 17.1279 42.4153 12.6268 39.7347 8.98114L38.2133 10.175V36.8694C41.8063 32.9537 44.0002 27.7333 44.0002 22Z" fill="#AC2201"/>
<path d="M35.7609 4.83594L22.5435 14.8332C22.2219 15.0764 21.7779 15.0764 21.4563 14.8332L8.23902 4.83594C6.71647 6.05814 5.3602 7.47869 4.20898 9.05848L21.4437 22.5808C21.7702 22.8371 22.2296 22.8371 22.5561 22.5808L39.7908 9.05848C38.6397 7.4786 37.2834 6.05823 35.7609 4.83594Z" fill="#CD2900"/>
<path d="M5.78694 36.8694V10.175L4.26551 8.98114C1.58486 12.6268 0 17.1279 0 22C0 27.7333 2.1939 32.9537 5.78694 36.8694Z" fill="#AC2201"/>
</g>
<defs>
<clipPath id="clip0">
<rect width="44" height="44" fill="white"/>
</clipPath>
</defs>
</svg>
