<svg width="26" height="24" viewBox="0 0 26 24" fill="none" xmlns="http://www.w3.org/2000/svg">
<path d="M23.9375 6.51591H18.9938C19.3484 6.27372 19.6531 6.03309 19.8656 5.81747C21.125 4.55028 21.125 2.48778 19.8656 1.22059C18.6422 -0.0106566 16.5078 -0.0122191 15.2828 1.22059C14.6063 1.90028 12.8078 4.66747 13.0563 6.51591H12.9438C13.1906 4.66747 11.3938 1.90028 10.7172 1.22059C9.49219 -0.0122191 7.35781 -0.0106566 6.13438 1.22059C4.875 2.48778 4.875 4.55028 6.13281 5.81747C6.34688 6.03309 6.65156 6.27372 7.00625 6.51591H2.0625C1.20156 6.51591 0.5 7.21747 0.5 8.07841V11.9847C0.5 12.4159 0.85 12.7659 1.28125 12.7659H2.0625V22.1409C2.0625 23.0018 2.76406 23.7034 3.625 23.7034H22.375C23.2359 23.7034 23.9375 23.0018 23.9375 22.1409V12.7659H24.7188C25.15 12.7659 25.5 12.4159 25.5 11.9847V8.07841C25.5 7.21747 24.7984 6.51591 23.9375 6.51591ZM7.24219 2.32216C7.55938 2.00341 7.97969 1.82841 8.42656 1.82841C8.87187 1.82841 9.29219 2.00341 9.60938 2.32216C10.6625 3.38153 11.7094 6.08778 11.3453 6.46434C11.3453 6.46434 11.2797 6.51591 11.0562 6.51591C9.97656 6.51591 7.91563 5.39403 7.24219 4.71591C6.5875 4.05653 6.5875 2.98153 7.24219 2.32216ZM12.2188 22.1409H3.625V12.7659H12.2188V22.1409ZM12.2188 11.2034H2.0625V8.07841H11.0562H12.2188V11.2034ZM16.3906 2.32216C17.025 1.68622 18.125 1.68778 18.7578 2.32216C19.4125 2.98153 19.4125 4.05653 18.7578 4.71591C18.0844 5.39403 16.0234 6.51591 14.9438 6.51591C14.7203 6.51591 14.6547 6.46591 14.6531 6.46434C14.2906 6.08778 15.3375 3.38153 16.3906 2.32216ZM22.375 22.1409H13.7812V12.7659H22.375V22.1409ZM23.9375 11.2034H13.7812V8.07841H14.9438H23.9375V11.2034Z" fill="#FF9903"/>
</svg>
