<svg width="55" height="55" viewBox="0 0 55 55" fill="none" xmlns="http://www.w3.org/2000/svg">
<path d="M48.9844 20.5176H41.25C40.3601 20.5176 39.6387 19.7961 39.6387 18.9062V1.61133C39.6387 0.721445 40.3601 0 41.25 0H48.9844C49.8743 0 50.5957 0.721445 50.5957 1.61133V18.9062C50.5957 19.7961 49.8743 20.5176 48.9844 20.5176Z" fill="#FE9903"/>
<path d="M40.2703 10.3125H14.7297L4.4043 17.0801V53.3887C4.4043 54.2781 5.12617 55 6.01562 55H10.4199L18.0469 52.5476L25.6738 55H48.9844C49.8738 55 50.5957 54.2781 50.5957 53.3887V16.8942L40.2703 10.3125Z" fill="#FE9903"/>
<path d="M27.5 10.3125V55H48.9844C49.8738 55 50.5957 54.2781 50.5957 53.3887V16.8942L40.2703 10.3125H27.5Z" fill="#F15200"/>
<path d="M54.1471 16.6882L28.3658 0.252661C27.8373 -0.0835693 27.1627 -0.0835693 26.6342 0.252661L0.85293 16.6882C0.388867 16.9847 0.107422 17.4971 0.107422 18.0471V25.7815C0.107422 27.0452 1.50563 27.8232 2.58135 27.1425L27.5 11.3612L52.4187 27.1425C53.4836 27.8163 54.8926 27.0546 54.8926 25.7815V18.0471C54.8926 17.4971 54.6111 16.9847 54.1471 16.6882Z" fill="#596C76"/>
<path d="M52.4187 27.1423C53.4924 27.8216 54.8926 27.0474 54.8926 25.7812V18.0469C54.8926 17.4969 54.6111 16.9845 54.1471 16.688L28.3658 0.25244C28.1016 0.0843249 27.8008 0.000213623 27.5 0.000213623V11.3609L52.4187 27.1423Z" fill="#242F41"/>
<path d="M18.0469 26.748C13.8413 26.748 10.4199 30.1694 10.4199 34.375V55H25.6738V34.375C25.6738 30.1694 22.2524 26.748 18.0469 26.748Z" fill="#FEFEFE"/>
<path d="M25.6738 55V34.375C25.6738 30.1694 22.2524 26.748 18.0469 26.748V55H25.6738Z" fill="#CCCCCC"/>
<path d="M42.9688 38.7793H42.8613V32.6562C42.8613 29.3985 40.2109 26.748 36.9531 26.748C33.6953 26.748 31.0449 29.3985 31.0449 32.6562V38.7793H30.9375C30.0476 38.7793 29.3262 39.5007 29.3262 40.3906C29.3262 41.2805 30.0476 42.002 30.9375 42.002H42.9688C43.8586 42.002 44.5801 41.2805 44.5801 40.3906C44.5801 39.5007 43.8586 38.7793 42.9688 38.7793Z" fill="white"/>
<path d="M42.9688 42.002C43.8586 42.002 44.5801 41.2805 44.5801 40.3906C44.5801 39.5007 43.8586 38.7793 42.9688 38.7793H42.8613V32.6562C42.8613 29.3985 40.2109 26.748 36.9531 26.748V42.002H42.9688Z" fill="#FEECD5"/>
</svg>
