<svg width="76" height="76" viewBox="0 0 76 76" fill="none" xmlns="http://www.w3.org/2000/svg">
<path fill-rule="evenodd" clip-rule="evenodd" d="M38.0004 0.558899H38.0009C58.5932 0.558899 75.4417 17.4074 75.4417 37.9997V38.0002C75.4417 58.5925 58.5932 75.441 38.0009 75.441H38.0004C17.4081 75.441 0.55957 58.5925 0.55957 38.0002V37.9997C0.55957 17.4074 17.4081 0.558899 38.0004 0.558899Z" fill="#FFFAF5"/>
<path fill-rule="evenodd" clip-rule="evenodd" d="M39.7938 54.7664L41.6685 58.6104C42.2581 59.7111 42.9674 61.4756 44.5821 61.6894C46.7078 61.9711 46.5987 59.4684 46.6605 57.7524C46.7279 55.9045 46.7151 54.0655 46.7763 52.2225C47.7818 51.6067 47.0848 52.1663 48.176 51.2883L53.0684 47.6175C53.2878 47.4321 53.5222 47.2873 53.7644 47.1169C54.0127 46.9404 54.2326 46.8051 54.4631 46.6192L56.5365 45.0056C57.0276 44.641 57.5137 44.3609 57.9836 43.965L59.4847 51.6646C59.9819 54.2425 60.3426 56.89 60.8488 59.4884C61.0843 60.6933 61.6238 62.1654 62.6844 62.4944C64.1009 62.9337 65.0084 61.387 65.2278 60.0858C65.5741 58.0358 65.7394 53.0003 66.0078 50.442C66.4376 50.3011 70.2354 47.3786 70.408 46.8029C70.609 46.1342 70.2181 45.7244 69.9648 45.4099C69.6413 45.0068 69.3718 44.6693 69.0489 44.264C67.7761 42.6577 67.1798 43.8453 66.4521 44.1939L66.981 37.1351C67.4961 36.7409 67.9521 36.4269 68.476 36.0499L71.3595 33.785C71.8834 33.368 72.2715 33.1219 72.7626 32.5044C73.5371 31.5323 74.2291 30.2907 74.7197 28.9717C75.1289 27.8698 75.8577 25.3972 75.1283 24.4724C74.4246 23.5816 71.8506 23.7447 70.7393 23.8889C69.3089 24.0732 67.9888 24.4579 66.8524 24.9997C65.8152 25.493 63.4394 27.5313 62.4489 28.4021C61.9734 28.8208 61.4445 29.166 61.0041 29.607L54.0266 28.5697C54.3612 27.9918 55.8261 27.6822 54.5199 26.0575C54.2081 25.6689 53.952 25.3504 53.6424 24.9585C53.3913 24.6417 53.0773 24.1372 52.3947 24.1433C51.7856 24.1489 50.5228 25.3649 50.0212 25.7647C49.603 26.0993 48.0174 27.2245 47.8069 27.6093C46.5046 27.347 39.4597 26.3181 38.2905 26.2641C35.1442 26.1165 33.7439 29.0635 37.7287 30.6153C41.9775 32.2694 48.3837 34.9047 52.4147 36.8094C52.0746 37.252 51.5601 37.5293 51.1219 37.9246L47.1282 41.3515C46.8943 41.5514 46.6833 41.6656 46.4517 41.8732C46.2173 42.0831 46.0503 42.2357 45.8136 42.4478C45.3632 42.8526 44.9055 43.1833 44.4562 43.5881C43.3354 44.5992 42.924 44.7662 41.8288 45.9605L36.4047 44.8792C34.6832 44.5474 32.2907 43.8932 32.0842 46.0078C31.9294 47.5885 33.348 48.6163 34.4594 49.5756C35.0301 50.0689 35.549 50.4676 36.1547 50.9614L37.432 51.9759C37.7204 52.1897 37.741 52.1273 37.7076 52.4374L37.5166 53.6568C37.4091 54.1618 36.6915 54.4535 36.4782 55.336C37.0111 55.336 37.8523 54.9552 38.1057 54.669L38.4648 54.7124L39.7916 54.7648L39.7938 54.7664ZM37.6385 53.6351H37.6402H37.6374L37.638 53.6345L37.6385 53.6351Z" fill="#242F41"/>
<path d="M18.7014 11.7984H15.6335V23.5369H18.7014V11.7984Z" fill="#242F41"/>
<path d="M32.0356 11.7984H28.9678V23.5369H32.0356V11.7984Z" fill="#242F41"/>
<path fill-rule="evenodd" clip-rule="evenodd" d="M12.2388 8.77179H12.7287H13.364H34.4167H35.0514H35.542C36.4645 8.77179 37.219 9.52622 37.219 10.4488V10.9388V10.9399V12.6575C37.219 13.8496 36.2441 14.825 35.0514 14.825H34.4167C33.2247 14.825 32.2492 13.8501 32.2492 12.6575V12.6163H15.531V12.6575C15.531 13.8496 14.5561 14.825 13.364 14.825H12.7287C11.5367 14.825 10.5618 13.8501 10.5618 12.6575V10.9399V10.9388V10.4488C10.5618 9.52622 11.3162 8.77179 12.2388 8.77179Z" fill="#FE9903"/>
<path fill-rule="evenodd" clip-rule="evenodd" d="M9.92333 30.613H37.9452C39.2169 30.613 40.2564 31.6525 40.2564 32.9241V36.6957C40.2564 37.571 39.5403 38.287 38.6651 38.287H8.7864C8.09823 38.287 7.53589 37.7246 7.53589 37.0365V33.0004C7.53589 31.687 8.61046 30.613 9.92333 30.613Z" fill="#FDFDFD"/>
<path fill-rule="evenodd" clip-rule="evenodd" d="M10.1126 22.9434H37.7619C39.1344 22.9434 40.2568 24.0659 40.2568 25.4378V29.5078C40.2568 30.4532 39.484 31.226 38.5392 31.226H8.886C8.14326 31.226 7.53638 30.6191 7.53638 29.8764V25.5202C7.53638 24.1026 8.69558 22.9434 10.1131 22.9434H10.1126Z" fill="#FE9903"/>
<path fill-rule="evenodd" clip-rule="evenodd" d="M8.93659 38.2924H40.0524V45.4191H8.69106C7.98841 45.4191 7.41382 44.8445 7.41382 44.1419V39.8158C7.41382 38.9778 8.09921 38.2924 8.93659 38.2924Z" fill="#FE9903"/>
<path fill-rule="evenodd" clip-rule="evenodd" d="M8.93659 45.3685H40.0524V51.7803C40.0524 52.174 39.7312 52.4952 39.3375 52.4952H8.69106C7.98841 52.4952 7.41382 51.9206 7.41382 51.218V46.8919C7.41382 46.0539 8.09921 45.3685 8.93659 45.3685Z" fill="#FDFDFD"/>
<path fill-rule="evenodd" clip-rule="evenodd" d="M9.46238 52.4746H38.5287C39.4508 52.4746 40.2046 53.2285 40.2046 54.1511V61.3507C40.2046 62.7343 39.0733 63.8662 37.6897 63.8662H10.3877C8.75695 63.8662 7.42236 62.5322 7.42236 60.9008V54.5146C7.42236 53.3927 8.33937 52.4752 9.46182 52.4752L9.46238 52.4746Z" fill="#FE9903"/>
<path fill-rule="evenodd" clip-rule="evenodd" d="M39.264 34.1483H41.064C41.7611 34.1483 42.3312 34.7185 42.3312 35.4155V48.238C42.3312 48.9919 41.7155 49.6083 40.961 49.6083H39.2634V34.1478L39.264 34.1483Z" fill="#F15200"/>
<path fill-rule="evenodd" clip-rule="evenodd" d="M18.5689 23.2474H18.5728L18.5845 24.8169C18.3189 24.6855 15.3251 26.0903 15.535 28.9944H13.9042C13.2205 25.7896 16.1709 23.2474 18.5689 23.2474Z" fill="#F15200"/>
<path fill-rule="evenodd" clip-rule="evenodd" d="M11.5183 31.1926L14.658 28.0234L17.8377 31.2444V40.0386C17.8377 40.724 17.2765 41.2852 16.5911 41.2852H12.8267C12.1074 41.2852 11.5189 40.6967 11.5189 39.9768V31.1926H11.5183Z" fill="#F15200"/>
<path d="M13.6658 68.1066C15.3826 68.1066 16.7743 66.7149 16.7743 64.9981C16.7743 63.2814 15.3826 61.8896 13.6658 61.8896C11.9491 61.8896 10.5574 63.2814 10.5574 64.9981C10.5574 66.7149 11.9491 68.1066 13.6658 68.1066Z" fill="#242F41"/>
<path d="M34.1365 68.1066C35.8533 68.1066 37.245 66.7149 37.245 64.9981C37.245 63.2814 35.8533 61.8896 34.1365 61.8896C32.4198 61.8896 31.0281 63.2814 31.0281 64.9981C31.0281 66.7149 32.4198 68.1066 34.1365 68.1066Z" fill="#242F41"/>
</svg>
