<svg width="26" height="28" viewBox="0 0 26 28" fill="none" xmlns="http://www.w3.org/2000/svg">
<path d="M25.0973 25.7501C24.8339 20.7458 20.3362 18.6756 20.3362 18.6756C19.2617 18.1732 17.3134 17.1896 16.0361 16.5395C17.6726 14.749 18.156 11.8298 18.2313 11.4144C18.5728 9.53497 18.4009 7.20868 18.4009 7.20868C18.0886 2.68498 13.5213 2.61393 13.0431 2.61869C13.0167 2.61869 12.9995 2.61896 12.9995 2.61896C12.9995 2.61896 12.9849 2.61869 12.9633 2.61896C12.5296 2.61334 7.91209 2.65913 7.5981 7.20868C7.5981 7.20868 7.42621 9.53469 7.76775 11.4144C7.78994 11.5355 7.84781 11.8728 7.95762 12.3289C8.81789 13.4582 10.146 14.012 11.236 14.2831C11.3731 14.1499 11.5599 14.0671 11.7669 14.0671H13.7536C14.1741 14.0671 14.5145 14.4077 14.5145 14.8282C14.5145 15.2489 14.1741 15.5899 13.7536 15.5899H11.7669C11.4531 15.5899 11.1849 15.4006 11.0678 15.1307C10.2548 14.9329 9.31388 14.5886 8.47411 13.9963C8.80915 14.8661 9.28661 15.7991 9.96346 16.5397C8.68612 17.1899 6.7387 18.1732 5.66331 18.6756C5.66331 18.6756 1.16628 20.7458 0.902246 25.7501C0.902246 25.7501 0.824147 26.5823 2.40116 26.8974C2.40116 26.8974 7.23241 28 13 28C18.7682 28 23.5995 26.8974 23.5995 26.8974C25.1762 26.5823 25.0973 25.7501 25.0973 25.7501Z" fill="#333333"/>
<path d="M6.05225 13.0367H6.53223V7.39909C6.53338 7.38504 6.53672 7.37154 6.53672 7.35722V6.52477C6.53672 5.04072 6.99478 3.83781 7.89829 2.94922C9.76711 1.11046 12.9593 1.13548 13.0132 1.14303C13.0511 1.14024 16.2166 1.09472 18.0938 2.93207C19.0035 3.82239 19.465 5.03088 19.465 6.52477V7.40499C19.465 7.41368 19.4672 7.42155 19.4672 7.42997V13.0367H19.9472C21.1284 13.0367 22.0859 12.0792 22.0859 10.8982V8.84292C22.0859 7.89279 21.4655 7.08843 20.6077 6.81008V6.525C20.6077 4.71236 20.0306 3.2289 18.8934 2.11558C16.6764 -0.0542442 13.1351 0.00193883 13.0113 0.000246012C12.8624 -0.00117229 9.31774 -0.0446823 7.1018 2.12912C5.96857 3.2413 5.39366 4.72027 5.39366 6.52477V6.8087C4.53481 7.08701 3.91382 7.89197 3.91382 8.84265V10.898C3.91386 12.0793 4.87154 13.0367 6.05225 13.0367Z" fill="#333333"/>
</svg>
