<svg width="76" height="76" viewBox="0 0 76 76" fill="none" xmlns="http://www.w3.org/2000/svg">
<path fill-rule="evenodd" clip-rule="evenodd" d="M37.9979 0.557098C58.5884 0.557098 75.4389 17.4038 75.4389 37.9981C75.4389 58.5886 58.5922 75.4392 37.9979 75.4392C17.4074 75.4392 0.556885 58.5924 0.556885 37.9981C0.556885 17.4077 17.4036 0.557098 37.9979 0.557098Z" fill="#FFFAF5"/>
<path d="M33.1441 10.8274C33.1441 10.2101 32.5443 9.70963 31.8044 9.70963C31.0644 9.70963 30.4646 10.2101 30.4646 10.8274V25.5113C30.4646 26.1287 31.0644 26.6291 31.8044 26.6291C32.5443 26.6291 33.1441 26.1287 33.1441 25.5113V10.8274Z" fill="white"/>
<path d="M33.1441 6.1076C33.1441 6.00612 32.5443 5.92386 31.8044 5.92386C31.0644 5.92386 30.4646 6.00612 30.4646 6.1076V8.53451C30.4646 8.63599 31.0644 8.71825 31.8044 8.71825C32.5443 8.71825 33.1441 8.63599 33.1441 8.53451V6.1076Z" fill="white"/>
<path d="M33.1441 46.7602C33.1441 46.6587 32.5443 46.5765 31.8044 46.5765C31.0644 46.5765 30.4646 46.6587 30.4646 46.7602V49.1871C30.4646 49.2886 31.0644 49.3709 31.8044 49.3709C32.5443 49.3709 33.1441 49.2886 33.1441 49.1871V46.7602Z" fill="white"/>
<path fill-rule="evenodd" clip-rule="evenodd" d="M26.0508 62.0528C14.5823 52.2801 8.95528 38.2201 8.71412 23.3141C8.70264 22.5026 8.88638 22.5486 9.52182 21.9476C14.7355 17.0095 23.1799 13.5491 30.0242 11.5586C31.5056 11.1375 36.9681 9.61779 38.1662 9.71349C39.7357 9.83981 42.4842 10.5863 44.1225 10.9844C44.513 11.0801 44.9034 11.1796 45.2939 11.2829C52.4636 13.2773 61.1645 16.9062 66.7265 21.9323C67.4499 22.5868 67.2739 22.9964 67.2203 23.9802C66.5848 36.264 62.2746 48.8694 54.0139 58.1407C50.5113 61.8576 43.8431 67.3737 38.9969 68.9355C37.0485 69.5632 35.9307 68.5603 34.3 67.6799C31.3142 66.0722 28.6691 64.2003 26.047 62.0567L26.0508 62.0528Z" fill="#FE9903"/>
<path fill-rule="evenodd" clip-rule="evenodd" d="M30.522 56.7014C32.7536 58.5235 35.0734 60.1695 37.6113 61.5361C37.7644 61.6203 37.9214 61.7083 38.0783 61.8002C41.6459 60.1082 46.5266 55.8975 48.8769 53.4208C55.5988 45.8377 59.2544 35.5903 60.1234 25.542C55.3806 22.0662 48.7391 19.4747 43.4336 18.001C43.1197 17.9129 42.7981 17.8364 42.4804 17.7598C41.2096 17.4497 39.4143 16.9024 38.0477 16.7148C36.2218 16.9789 33.6953 17.756 31.9689 18.2574C26.8893 19.7274 20.244 22.2883 15.7959 25.7525C16.55 37.6651 21.2852 48.7929 30.5258 56.6976L30.522 56.7014Z" fill="#FEFEFE"/>
<path fill-rule="evenodd" clip-rule="evenodd" d="M36.0957 24.2291H39.8509C40.5552 24.2291 41.1294 24.8033 41.1294 25.5076V32.5816H48.2034C48.9078 32.5816 49.482 33.1558 49.482 33.8602V37.6154C49.482 38.3197 48.9078 38.8939 48.2034 38.8939H41.1294V45.9679C41.1294 46.6723 40.5552 47.2465 39.8509 47.2465H36.0957C35.3913 47.2465 34.8172 46.6723 34.8172 45.9679V38.8939H27.7431C27.0388 38.8939 26.4646 38.3197 26.4646 37.6154V33.8602C26.4646 33.1558 27.0388 32.5816 27.7431 32.5816H34.8172V25.5076C34.8172 24.8033 35.3913 24.2291 36.0957 24.2291Z" fill="#242F41"/>
<path fill-rule="evenodd" clip-rule="evenodd" d="M62.0375 8.85217H58.3053V12.5844C58.3053 13.2734 57.7464 13.8285 57.0612 13.8285C56.376 13.8285 55.8171 13.2696 55.8171 12.5844V8.85217H52.0849C51.3997 8.85217 50.8408 8.29329 50.8408 7.60809C50.8408 6.92289 51.3997 6.36401 52.0849 6.36401H55.8171V2.63177C55.8171 1.94657 56.376 1.3877 57.0612 1.3877C57.7464 1.3877 58.3053 1.94657 58.3053 2.63177V6.36401H62.0375C62.7227 6.36401 63.2816 6.92289 63.2816 7.60809C63.2816 8.29329 62.7227 8.85217 62.0375 8.85217Z" fill="#FE9903"/>
<path fill-rule="evenodd" clip-rule="evenodd" d="M66.8568 14.3529H65.5821V15.6276C65.5821 15.8611 65.3907 16.0525 65.1572 16.0525C64.9237 16.0525 64.7323 15.8611 64.7323 15.6276V14.3529H63.4576C63.2241 14.3529 63.0327 14.1615 63.0327 13.928C63.0327 13.6945 63.2241 13.5031 63.4576 13.5031H64.7323V12.2284C64.7323 11.9949 64.9237 11.8035 65.1572 11.8035C65.3907 11.8035 65.5821 11.9949 65.5821 12.2284V13.5031H66.8568C67.0903 13.5031 67.2817 13.6945 67.2817 13.928C67.2817 14.1615 67.0903 14.3529 66.8568 14.3529Z" fill="#FE9903"/>
<path fill-rule="evenodd" clip-rule="evenodd" d="M37.9978 51.6256V61.7543C38.0246 61.7696 38.0514 61.7849 38.0782 61.8002C41.6458 60.1083 46.5264 55.8975 48.8768 53.4209C49.3936 52.8352 49.895 52.238 50.3773 51.6217C51.7477 49.8724 52.9727 48.0082 54.0522 46.0559C57.5203 39.7858 59.5108 32.616 60.1271 25.542C58.3203 24.2175 56.2341 23.0194 54.0522 21.9667C53.8684 21.8787 53.6808 21.7906 53.4971 21.7026C50.117 20.1178 46.5456 18.8661 43.4373 18.0048C43.1234 17.9168 42.8019 17.8402 42.4841 17.7637C41.2133 17.4536 39.418 16.9062 38.0514 16.7186C38.0361 16.7225 38.0208 16.7225 38.0055 16.7263V21.7064V24.2329H39.8582C40.5625 24.2329 41.1367 24.8071 41.1367 25.5114V32.5854H48.2107C48.9151 32.5854 49.4893 33.1596 49.4893 33.8639V37.6191C49.4893 38.3235 48.9151 38.8977 48.2107 38.8977H41.1367V45.9717C41.1367 46.676 40.5625 47.2502 39.8582 47.2502H38.0055V51.6294L37.9978 51.6256Z" fill="#CCCCCC"/>
</svg>
