<svg width="76" height="76" viewBox="0 0 76 76" fill="none" xmlns="http://www.w3.org/2000/svg">
<path fill-rule="evenodd" clip-rule="evenodd" d="M37.9217 0.557556C58.5123 0.557556 75.3623 17.4075 75.3623 37.9981C75.3623 58.5887 58.5123 75.4386 37.9217 75.4386C17.3312 75.4386 0.481201 58.5887 0.481201 37.9981C0.481201 17.4075 17.3312 0.557556 37.9217 0.557556Z" fill="#FFFAF5"/>
<path fill-rule="evenodd" clip-rule="evenodd" d="M63.168 10.5926H57.9189V15.8417C57.9189 16.8065 57.134 17.5914 56.1692 17.5914C55.2043 17.5914 54.4195 16.8065 54.4195 15.8417V10.5926H49.1704C48.2055 10.5926 47.4207 9.80769 47.4207 8.84287C47.4207 7.87804 48.2055 7.09316 49.1704 7.09316H54.4195V1.84406C54.4195 0.879237 55.2043 0.0943604 56.1692 0.0943604C57.134 0.0943604 57.9189 0.879237 57.9189 1.84406V7.09316H63.168C64.1328 7.09316 64.9177 7.87804 64.9177 8.84287C64.9177 9.80769 64.1328 10.5926 63.168 10.5926Z" fill="#FE9903"/>
<path fill-rule="evenodd" clip-rule="evenodd" d="M69.9446 18.3265H68.149V20.1184C68.149 20.4476 67.881 20.7156 67.5517 20.7156C67.2225 20.7156 66.9544 20.4476 66.9544 20.1184V18.3265H65.1588C64.8295 18.3265 64.5615 18.0585 64.5615 17.7293C64.5615 17.4 64.8295 17.132 65.1588 17.132H66.9544V15.3363C66.9544 15.0071 67.2225 14.7391 67.5517 14.7391C67.881 14.7391 68.149 15.0071 68.149 15.3363V17.132H69.9446C70.2739 17.132 70.5419 17.4 70.5419 17.7293C70.5419 18.0585 70.2739 18.3265 69.9446 18.3265Z" fill="#FE9903"/>
<path fill-rule="evenodd" clip-rule="evenodd" d="M31.499 38.6442L31.5022 38.3849L18.8091 38.4073L6.19604 38.4361L7.40613 53.8151L18.8411 53.8727L30.2217 53.8631L31.499 38.6442Z" fill="#FE9903"/>
<path fill-rule="evenodd" clip-rule="evenodd" d="M18.8892 25.6823C15.8031 25.7687 12.6179 25.6951 9.52222 25.6951C4.39375 25.6951 4.40016 24.7475 4.40016 29.8375C4.40016 34.9756 4.35854 34.028 9.52222 34.028C12.6179 34.028 15.7263 33.9992 18.8188 34.0312L31.8736 34.028C32.93 33.8679 33.2181 33.4742 33.247 32.3249C33.2694 31.3581 33.2405 30.3465 33.2405 29.3733C33.2405 26.6298 33.836 25.6726 30.8492 25.6694L18.8924 25.6823H18.8892Z" fill="#FE9903"/>
<path fill-rule="evenodd" clip-rule="evenodd" d="M20.256 25.7111L6.89059 25.6983C6.89059 20.3137 6.26633 20.4258 10.6457 20.429C13.3668 20.429 16.0879 20.429 18.8122 20.429V20.4002C21.7061 20.4002 24.5969 20.4002 27.4909 20.4002C31.4092 20.4002 30.849 20.2849 30.849 25.6695L20.2592 25.6823V25.7143L20.256 25.7111Z" fill="#242F41"/>
<path fill-rule="evenodd" clip-rule="evenodd" d="M20.3457 38.4361L6.1576 38.4137L5.74463 34.0568L18.8187 34.06V34.0312L31.8735 34.028L31.5022 38.3849L20.3457 38.4041V38.4361Z" fill="white"/>
<path fill-rule="evenodd" clip-rule="evenodd" d="M30.2217 53.8632L18.8411 53.876V53.9048L7.5918 53.8952C7.69744 55.2781 7.8415 56.6963 7.98235 58.0761C8.16483 59.8592 7.89912 60.8164 10.1176 60.842C13.511 60.8836 16.9492 60.8356 20.3521 60.8356V60.81C22.8907 60.8196 25.4422 60.8452 27.9648 60.8132C29.9496 60.7875 29.7127 59.8272 29.876 58.0472C30.0008 56.6643 30.1289 55.2461 30.2249 53.8664L30.2217 53.8632Z" fill="white"/>
<path fill-rule="evenodd" clip-rule="evenodd" d="M16.4001 54.6578H71.3906V57.7692C71.3906 59.4811 69.9911 60.8806 68.2791 60.8806H19.5148C17.8029 60.8806 16.4034 59.4811 16.4034 57.7692V54.6578H16.4001Z" fill="#242F41" stroke="#242F41" stroke-width="0.705378" stroke-miterlimit="22.9256"/>
<path d="M43.8956 32.0282C45.7811 32.0282 47.3097 30.4996 47.3097 28.6141C47.3097 26.7285 45.7811 25.2 43.8956 25.2C42.01 25.2 40.4814 26.7285 40.4814 28.6141C40.4814 30.4996 42.01 32.0282 43.8956 32.0282Z" fill="#242F41"/>
<path fill-rule="evenodd" clip-rule="evenodd" d="M43.8953 30.3781C57.3044 30.3781 68.1749 41.2486 68.1749 54.6577H19.6189C19.6189 41.2486 30.4894 30.3781 43.8985 30.3781H43.8953Z" fill="#FE9903"/>
<path fill-rule="evenodd" clip-rule="evenodd" d="M26.5123 51.7513H21.946C21.946 51.7513 22.6198 40.6465 33.2559 34.6287C33.2559 34.6287 25.5782 42.5179 26.5123 51.7513Z" fill="white"/>
<path fill-rule="evenodd" clip-rule="evenodd" d="M43.8953 30.3782C57.3044 30.3782 68.1749 41.2487 68.1749 54.6578H19.6189C19.6189 41.2487 30.4894 30.3782 43.8985 30.3782H43.8953Z" stroke="#242F41" stroke-width="0.705378" stroke-miterlimit="22.9256"/>
</svg>
