<svg width="22" height="28" viewBox="0 0 22 28" fill="none" xmlns="http://www.w3.org/2000/svg">
<path d="M1.97656 19.7422H20.0234C20.0234 17.93 18.5544 16.4609 16.7422 16.4609H5.25781C3.44563 16.4609 1.97656 17.93 1.97656 19.7422Z" fill="#333333"/>
<path d="M2.15625 28H19.8443L21.895 21.3828H0.105469L2.15625 28ZM10.1799 23.8438H11.8206V25.4844H10.1799V23.8438Z" fill="#333333"/>
<path d="M11.2564 5.01501L12.0254 2.95143L12.7945 5.01501C13.1509 5.97313 14.0786 6.61719 15.1016 6.61719H16.7422V5.79688C16.7422 2.63096 14.1659 0 11 0C7.83409 0 5.25781 2.63096 5.25781 5.79688V6.61719H8.94922C9.9722 6.61719 10.8999 5.97313 11.2564 5.01501Z" fill="#333333"/>
<path d="M3.61719 9.89843C3.61719 10.8044 4.3517 11.5391 5.25781 11.5391H5.50516C5.79867 12.8284 6.42238 13.9582 7.27108 14.8203H14.729C15.5776 13.9582 16.2014 12.8284 16.4949 11.5391H16.7422C17.6483 11.5391 18.3828 10.8044 18.3828 9.89843C18.3828 8.99231 17.6483 8.2578 16.7422 8.2578C16.577 8.2578 14.9364 8.2578 15.1016 8.2578C13.9071 8.2578 12.7912 7.73067 12.0254 6.86633C11.2595 7.73067 10.1436 8.2578 8.94922 8.2578C8.77159 8.2578 5.08938 8.2578 5.25781 8.2578C4.3517 8.2578 3.61719 8.99231 3.61719 9.89843Z" fill="#333333"/>
</svg>
