<svg width="28" height="28" viewBox="0 0 28 28" fill="none" xmlns="http://www.w3.org/2000/svg">
<path d="M14.8641 9.65555C14.5845 9.60001 14.2957 9.57031 14 9.57031C11.5574 9.57031 9.57031 11.5574 9.57031 14C9.57031 16.4426 11.5574 18.4297 14 18.4297C16.4426 18.4297 18.4297 16.4426 18.4297 14C18.4297 13.7043 18.4 13.4155 18.3445 13.1359L15.7402 15.7402C15.2753 16.205 14.6573 16.4609 14 16.4609C13.3427 16.4609 12.7247 16.205 12.2598 15.7402C11.795 15.2753 11.5391 14.6573 11.5391 14C11.5391 13.3427 11.795 12.7247 12.2598 12.2598L14.8641 9.65555Z" fill="#333333"/>
<path d="M26.7471 8.21338L24.9821 9.97833C24.8055 10.155 24.6064 10.3015 24.3915 10.4152C24.7803 11.5395 24.9922 12.7454 24.9922 14C24.9922 20.0611 20.0611 24.9922 14 24.9922C7.93887 24.9922 3.00781 20.0611 3.00781 14C3.00781 7.93887 7.93887 3.00781 14 3.00781C15.255 3.00781 16.4616 3.21994 17.5861 3.60895C17.7 3.39383 17.8454 3.19388 18.0219 3.01764L19.7866 1.2529C18.0219 0.448608 16.0625 0 14 0C6.2803 0 0 6.2803 0 14C0 21.7197 6.2803 28 14 28C21.7197 28 28 21.7197 28 14C28 11.9375 27.5514 9.97812 26.7471 8.21338Z" fill="#333333"/>
<path d="M17.4842 7.03546L17.3347 5.26324C16.2984 4.86612 15.1743 4.64844 14 4.64844C8.84357 4.64844 4.64844 8.84357 4.64844 14C4.64844 19.1564 8.84357 23.3516 14 23.3516C19.1564 23.3516 23.3516 19.1564 23.3516 14C23.3516 12.8257 23.1339 11.7016 22.7368 10.6653L20.9645 10.5158L19.6638 11.8163C19.9261 12.4944 20.0703 13.2305 20.0703 14C20.0703 17.3473 17.3473 20.0703 14 20.0703C10.6527 20.0703 7.92969 17.3473 7.92969 14C7.92969 10.6527 10.6527 7.92969 14 7.92969C14.7695 7.92969 15.5056 8.07388 16.1837 8.33621L17.4842 7.03546Z" fill="#333333"/>
<path d="M18.9443 4.82679L19.1831 7.65687L13.42 13.42C13.0996 13.7402 13.0996 14.2597 13.42 14.58C13.58 14.7402 13.79 14.8203 14 14.8203C14.21 14.8203 14.42 14.7402 14.58 14.58L20.3431 8.81684L23.1732 9.05546C23.1963 9.05738 23.2191 9.05845 23.2422 9.05845C23.4588 9.05845 23.6677 8.97257 23.8222 8.81812L27.3023 5.33778C27.5281 5.11219 27.6024 4.77595 27.4929 4.47602C27.3831 4.1761 27.1094 3.96717 26.7913 3.94047L24.2719 3.72791L24.0595 1.20866C24.0326 0.890359 23.8237 0.616708 23.524 0.507119C23.224 0.397317 22.8878 0.471872 22.662 0.697458L19.1819 4.1778C19.011 4.3487 18.924 4.58604 18.9443 4.82679Z" fill="#333333"/>
</svg>
