<svg width="18" height="18" viewBox="0 0 18 18" fill="none" xmlns="http://www.w3.org/2000/svg">
<path d="M15.8282 0.375H2.17183C1.18149 0.375 0.375 1.1807 0.375 2.17183V15.8282C0.375 16.8193 1.18149 17.625 2.17183 17.625H15.8282C16.8185 17.625 17.625 16.8193 17.625 15.8282V2.17183C17.625 1.1807 16.8185 0.375 15.8282 0.375V0.375ZM16.1875 2.17183V8.28129H9.71871V1.81254H15.8282C16.0265 1.81254 16.1875 1.97416 16.1875 2.17183ZM2.17183 1.81254H8.28129V8.28129H1.81254V2.17183C1.81254 1.97416 1.9735 1.81254 2.17183 1.81254ZM1.81254 15.8282V9.71871H8.28129V16.1875H2.17183C1.9735 16.1875 1.81254 16.0258 1.81254 15.8282ZM15.8282 16.1875H9.71871V9.71871H16.1875V15.8282C16.1875 16.0258 16.0265 16.1875 15.8282 16.1875Z" fill="#FDFDFD"/>
</svg>
