<svg width="27" height="27" viewBox="0 0 27 27" fill="none" xmlns="http://www.w3.org/2000/svg">
<g clip-path="url(#clip0)">
<path d="M25.2439 20.8536H22.3211C21.8459 19.2721 20.3927 18.1097 18.6586 18.1097C16.9244 18.1097 15.4723 19.2721 14.996 20.8536H1.09754C0.49169 20.8536 0 21.3454 0 21.9512C0 22.5571 0.49169 23.0488 1.09754 23.0488H14.996C15.4712 24.6303 16.9244 25.7927 18.6585 25.7927C20.3926 25.7927 21.8447 24.6303 22.321 23.0488H25.2439C25.8508 23.0488 26.3414 22.5571 26.3414 21.9512C26.3414 21.3454 25.8509 20.8536 25.2439 20.8536ZM18.6586 23.5976C17.7509 23.5976 17.0122 22.8589 17.0122 21.9512C17.0122 21.0435 17.7509 20.3049 18.6586 20.3049C19.5663 20.3049 20.3049 21.0435 20.3049 21.9512C20.3049 22.8589 19.5662 23.5976 18.6586 23.5976Z" fill="#060608"/>
<path d="M25.2439 3.29271H22.3211C21.8447 1.71115 20.3927 0.548828 18.6586 0.548828C16.9244 0.548828 15.4723 1.71115 14.996 3.29271H1.09754C0.49169 3.29271 0 3.7844 0 4.39026C0 4.99611 0.49169 5.4878 1.09754 5.4878H14.996C15.4723 7.06942 16.9244 8.23174 18.6586 8.23174C20.3927 8.23174 21.8448 7.06942 22.3211 5.48785H25.2439C25.8509 5.48785 26.3415 4.99616 26.3415 4.39031C26.3415 3.78445 25.8509 3.29271 25.2439 3.29271ZM18.6586 6.0366C17.7509 6.0366 17.0122 5.29796 17.0122 4.39026C17.0122 3.48256 17.7509 2.74392 18.6586 2.74392C19.5663 2.74392 20.3049 3.48256 20.3049 4.39026C20.3049 5.29796 19.5662 6.0366 18.6586 6.0366Z" fill="#060608"/>
<path d="M25.2439 12.0732H11.3455C10.8691 10.4916 9.41707 9.32928 7.68296 9.32928C5.94885 9.32928 4.49672 10.4916 4.02042 12.0732H1.09754C0.49169 12.0732 0 12.5649 0 13.1707C0 13.7766 0.49169 14.2683 1.09754 14.2683H4.02037C4.49672 15.8498 5.9488 17.0122 7.68291 17.0122C9.41702 17.0122 10.8691 15.8498 11.3455 14.2683H25.2439C25.8508 14.2683 26.3414 13.7766 26.3414 13.1707C26.3415 12.5649 25.8509 12.0732 25.2439 12.0732ZM7.68291 14.8171C6.77521 14.8171 6.03657 14.0784 6.03657 13.1707C6.03657 12.263 6.77521 11.5244 7.68291 11.5244C8.59061 11.5244 9.32925 12.263 9.32925 13.1707C9.32925 14.0784 8.59061 14.8171 7.68291 14.8171Z" fill="#060608"/>
</g>
<defs>
<clipPath id="clip0">
<rect width="26.3415" height="26.3415" fill="white"/>
</clipPath>
</defs>
</svg>
