<svg width="25" height="18" viewBox="0 0 25 18" fill="none" xmlns="http://www.w3.org/2000/svg">
<path d="M22.0146 0.880859H2.92285C1.44906 0.880859 0.25 2.07992 0.25 3.55371V15.0088C0.25 16.4826 1.44906 17.6816 2.92285 17.6816H22.0146C23.4884 17.6816 24.6875 16.4826 24.6875 15.0088V3.55371C24.6875 2.07992 23.4884 0.880859 22.0146 0.880859ZM2.92285 2.4082H22.0146C22.6463 2.4082 23.1602 2.92211 23.1602 3.55371V5.08105H1.77734V3.55371C1.77734 2.92211 2.29125 2.4082 2.92285 2.4082ZM22.0146 16.1543H2.92285C2.29125 16.1543 1.77734 15.6404 1.77734 15.0088V6.6084H23.1602V15.0088C23.1602 15.6404 22.6463 16.1543 22.0146 16.1543Z" fill="#FF9F63"/>
<path d="M5.5957 13.8633H4.83203C4.41029 13.8633 4.06836 13.5213 4.06836 13.0996V12.3359C4.06836 11.9142 4.41029 11.5723 4.83203 11.5723H5.5957C6.01744 11.5723 6.35938 11.9142 6.35938 12.3359V13.0996C6.35938 13.5213 6.01744 13.8633 5.5957 13.8633Z" fill="#FF9F63"/>
</svg>
