<svg width="36" height="56" viewBox="0 0 36 56" fill="none" xmlns="http://www.w3.org/2000/svg">
<path d="M3.24276 0H32.7575C34.2857 0 35.5246 1.23889 35.5246 2.76717V53.2327C35.5246 54.761 34.2857 55.9999 32.7575 55.9999H3.24276C1.71448 55.9999 0.475586 54.761 0.475586 53.2327V2.76717C0.475455 1.23889 1.71448 0 3.24276 0V0Z" fill="#F15200"/>
<path d="M2.58374 4.8754H33.4165V47.9627H2.58374V4.8754Z" fill="#FE9903"/>
<path d="M18.0003 53.8297C19.0794 53.8297 19.9541 52.9549 19.9541 51.8758C19.9541 50.7967 19.0794 49.9219 18.0003 49.9219C16.9212 49.9219 16.0464 50.7967 16.0464 51.8758C16.0464 52.9549 16.9212 53.8297 18.0003 53.8297Z" fill="white"/>
<path d="M20.4736 1.93683H15.5264C15.1913 1.93683 14.9197 2.20849 14.9197 2.54355C14.9197 2.8786 15.1913 3.15026 15.5264 3.15026H20.4728C20.8078 3.15026 21.0796 2.8786 21.0796 2.54355C21.0796 2.20849 20.808 1.93683 20.4728 1.93683H20.4736Z" fill="white"/>
<path d="M27.6682 35.6748L27.4928 35.8537C27.4886 35.8571 27.4851 35.8613 27.4825 35.866C27.469 35.877 27.4567 35.8894 27.4456 35.9029C27.4387 35.9081 27.432 35.9138 27.4258 35.9199C25.9535 37.3903 24.6866 38.2139 23.4362 38.1422C20.8225 37.994 17.0215 35.4439 13.766 32.2547C10.5787 29.0026 8.0341 25.2014 7.87569 22.5858C7.81349 21.3633 8.61325 20.1137 10.0385 18.6733C10.0611 18.6488 10.0829 18.6262 10.1068 18.6051L10.354 18.3578C10.7255 17.9863 11.4467 17.5834 11.9623 18.1003L15.7116 21.8421C16.1097 22.2403 15.9663 22.9559 15.3824 23.5153L15.1673 23.7304C14.7388 24.0981 14.4101 24.5678 14.2112 25.0962C13.6704 26.5658 15.0445 27.9999 16.5367 29.4908C18.0289 30.9817 19.4616 32.3543 20.932 31.8169C21.4546 31.6132 21.921 31.288 22.2931 30.8683V30.8636C22.2931 30.8636 22.3101 30.8465 22.3355 30.8239L22.3628 30.7966C22.3647 30.7921 22.3684 30.7884 22.373 30.7864C22.4324 30.7242 22.5096 30.6498 22.5096 30.6498C22.8953 30.1193 23.6247 29.9759 24.1828 30.3206L27.9293 34.0651C28.2549 34.5918 28.1437 35.2779 27.6682 35.6748Z" fill="#EEEFEE"/>
</svg>
