<svg width="28" height="26" viewBox="0 0 28 26" fill="none" xmlns="http://www.w3.org/2000/svg">
<path d="M3.28125 0.564209H4.92188V3.22935H3.28125V0.564209Z" fill="#333333"/>
<path d="M6.5625 0.564209H8.20312V3.22935H6.5625V0.564209Z" fill="#333333"/>
<path d="M0 0.564209H1.64062V3.22935H0V0.564209Z" fill="#333333"/>
<path d="M9.84375 0.564209H28V3.22935H9.84375V0.564209Z" fill="#333333"/>
<path d="M11.5601 9.74645C11.6402 9.49735 11.7241 9.27138 11.8105 9.06433C9.56457 9.87442 7.89146 11.8937 7.58154 14.3326H10.848C10.9079 12.6097 11.1552 11.0047 11.5601 9.74645Z" fill="#333333"/>
<path d="M14.9327 10.4256C14.5374 9.10423 14.1102 8.72481 13.9998 8.68451C13.8894 8.72481 13.4621 9.10418 13.0669 10.4256C12.7442 11.5044 12.5444 12.869 12.4897 14.3326H15.5098C15.4552 12.869 15.2554 11.5045 14.9327 10.4256Z" fill="#333333"/>
<path d="M13.9998 21.6213C14.1102 21.581 14.5374 21.2015 14.9327 19.8801C15.2554 18.8013 15.4552 17.4368 15.5098 15.9732H12.4897C12.5444 17.4368 12.7442 18.8014 13.0669 19.8802C13.4621 21.2016 13.8894 21.581 13.9998 21.6213Z" fill="#333333"/>
<path d="M17.1518 14.3326H20.4182C20.1083 11.8937 18.4352 9.87441 16.1892 9.06433C16.2757 9.27138 16.3595 9.49735 16.4397 9.74645C16.8446 11.0047 17.0919 12.6097 17.1518 14.3326Z" fill="#333333"/>
<path d="M0 25.4359H28V4.87006H0V25.4359ZM14 7.04219C18.4723 7.04219 22.1108 10.6807 22.1108 15.153C22.1108 19.6253 18.4723 23.2637 14 23.2637C9.52766 23.2637 5.88919 19.6253 5.88919 15.1529C5.88919 10.6806 9.52771 7.04219 14 7.04219Z" fill="#333333"/>
<path d="M20.4182 15.9732H17.1517C17.0919 17.6962 16.8446 19.3012 16.4397 20.5594C16.3595 20.8085 16.2757 21.0344 16.1892 21.2415C18.4352 20.4314 20.1083 18.4121 20.4182 15.9732Z" fill="#333333"/>
<path d="M11.8105 21.2415C11.7241 21.0345 11.6402 20.8085 11.5601 20.5594C11.1552 19.3012 10.9079 17.6962 10.848 15.9732H7.58154C7.89146 18.4121 9.56457 20.4314 11.8105 21.2415Z" fill="#333333"/>
</svg>
