<svg width="76" height="75" viewBox="0 0 76 75" fill="none" xmlns="http://www.w3.org/2000/svg">
<path d="M28.3569 8.51318H16.0759V15.2968H28.3569V8.51318Z" fill="white"/>
<path fill-rule="evenodd" clip-rule="evenodd" d="M38.1041 0.0675964C58.6962 0.0675964 75.5444 16.9158 75.5444 37.5079C75.5444 58.1 58.6962 74.9482 38.1041 74.9482C17.512 74.9482 0.663818 58.1 0.663818 37.5079C0.663818 16.9158 17.512 0.0675964 38.1041 0.0675964Z" fill="#FFFAF5"/>
<path fill-rule="evenodd" clip-rule="evenodd" d="M16.1277 30.3981C16.0418 38.222 17.4371 45.5104 18.85 52.6555L28.4142 52.6445L38.092 52.5816C38.7334 46.7283 41.1813 39.3738 40.6732 33.128L40.7558 15.3551L28.358 15.3408L16.1101 15.2967L16.1288 30.3981H16.1277ZM28.4142 32.3389L21.6527 32.3224C21.4356 31.9851 21.5381 32.3962 21.4697 31.7096L21.5017 21.9888L28.4153 21.9425L33.851 21.9723C35.5428 21.9536 35.1603 21.8389 35.3367 22.2831L35.3323 32.3157L28.4153 32.3378L28.4142 32.3389Z" fill="#FE9903"/>
<path d="M43.0924 15.1645H28.3569V52.7789H43.0924V15.1645Z" fill="#F15200"/>
<path fill-rule="evenodd" clip-rule="evenodd" d="M43.509 49.2158L51.7507 49.3018L51.7419 66.5369L59.8976 66.5148L59.9428 39.0201L46.1288 39.1413L43.5178 39.0917L43.509 49.2158Z" fill="#242F41"/>
<path fill-rule="evenodd" clip-rule="evenodd" d="M21.6537 32.135L21.6526 32.3223L28.4141 32.34L35.3322 32.3179L35.3355 22.2853L28.4185 22.1938V32.1195L21.6537 32.135Z" fill="#EEE2DD"/>
<path fill-rule="evenodd" clip-rule="evenodd" d="M46.2556 32.2155L51.7464 32.3059L57.2537 32.3048V32.059L57.2504 15.2483C55.3338 15.2483 53.0524 15.2935 51.7342 16.5091C50.7523 17.0701 49.5884 18.083 49.0186 18.7883C48.3882 19.5708 47.6883 20.8295 47.1957 22.1267C45.8963 25.541 46.3526 28.3349 46.2556 32.2155Z" fill="#FE9903"/>
<path fill-rule="evenodd" clip-rule="evenodd" d="M21.6541 32.135L28.4189 32.1195V22.1938L21.6552 22.2004L21.6541 32.135Z" fill="#F8FAFA"/>
<path fill-rule="evenodd" clip-rule="evenodd" d="M46.1948 39.0254L51.7462 39.0298V32.3058L46.2554 32.2154L46.1948 39.0254Z" fill="#FFD396"/>
<path fill-rule="evenodd" clip-rule="evenodd" d="M51.7463 39.03L57.2459 38.9705L57.2537 32.3048L51.7463 32.3059V39.03Z" fill="#FFB64C"/>
<path fill-rule="evenodd" clip-rule="evenodd" d="M16.1289 30.3981L16.1091 15.2967L28.357 15.3419L28.4297 15.1358V8.41837L27.0289 8.53188L27.0267 15.0499H23.0227L22.9665 8.52858L20.1704 8.49772L20.1715 15.0499L15.9437 15.0576C15.9625 17.5484 15.7068 29.0656 16.1278 30.3981H16.1289Z" fill="#EEE2DD"/>
<path fill-rule="evenodd" clip-rule="evenodd" d="M36.6569 15.1633L40.8141 15.2008L40.7921 8.57593L36.647 8.49878L36.6569 15.1633Z" fill="#EEE2DD"/>
<path fill-rule="evenodd" clip-rule="evenodd" d="M29.7986 15.1644L33.9183 15.1677L33.9238 8.50978L29.7964 8.49655L29.7986 15.1644Z" fill="#EEE2DD"/>
<path fill-rule="evenodd" clip-rule="evenodd" d="M33.9185 15.1677L36.6572 15.1633L36.6473 8.49878L33.924 8.5098L33.9185 15.1677Z" fill="#242F41"/>
<path fill-rule="evenodd" clip-rule="evenodd" d="M28.4299 15.1358L29.7988 15.1645L29.7966 8.49662L28.4299 8.41837V15.1358Z" fill="#242F41"/>
<path fill-rule="evenodd" clip-rule="evenodd" d="M40.6732 33.1281C41.0314 32.3136 41.1218 16.6943 40.8143 15.2009L36.657 15.1634L33.9183 15.1678L29.7985 15.1645L28.4297 15.1359L28.3569 15.342L40.7558 15.3563L40.6732 33.1292V33.1281Z" fill="#FDC272"/>
<path fill-rule="evenodd" clip-rule="evenodd" d="M59.8978 66.5148C60.2538 66.182 60.0675 60.7694 60.0675 59.901L60.0818 38.9848L57.2461 38.9694L51.7464 39.0289L46.195 39.0245L46.1289 39.1402L59.943 39.019L59.8978 66.5137V66.5148Z" fill="#9DA6AA"/>
<path fill-rule="evenodd" clip-rule="evenodd" d="M21.6527 32.3224L21.6538 32.1351L21.6549 22.2005L28.4186 22.1939L35.3367 22.2854C35.1603 21.8423 35.5439 21.9558 33.851 21.9746L28.4153 21.9448L21.5017 21.9911L21.4697 31.7119C21.5381 32.3974 21.4367 31.9874 21.6527 32.3235V32.3224Z" fill="#FFD396"/>
<path fill-rule="evenodd" clip-rule="evenodd" d="M59.934 66.5368L59.9428 49.3018L51.7011 49.2158V49.3018L43.509 49.2158L43.5178 66.5368H51.7419H59.934Z" fill="#596C76"/>
<path fill-rule="evenodd" clip-rule="evenodd" d="M28.4682 66.5985L28.5134 66.5996L28.6148 66.5963L35.2827 66.5071L38.0259 66.5335L38.092 52.6566V52.6555V52.5817L28.4958 52.6445L18.8511 52.5817V52.6555L18.9172 66.5346L21.6604 66.5071L28.3282 66.5963L28.4296 66.5996L28.4682 66.5985Z" fill="white"/>
<path d="M28.4317 73.0889C32.0156 73.0889 34.921 70.1835 34.921 66.5995C34.921 63.0156 32.0156 60.1102 28.4317 60.1102C24.8477 60.1102 21.9424 63.0156 21.9424 66.5995C21.9424 70.1835 24.8477 73.0889 28.4317 73.0889Z" fill="#596C76"/>
<path fill-rule="evenodd" clip-rule="evenodd" d="M62.7655 7.76596H59.0193V11.511C59.0193 12.2009 58.4595 12.7597 57.7706 12.7597C57.0818 12.7597 56.5219 12.1998 56.5219 11.511V7.76596H52.7758C52.0859 7.76596 51.5271 7.20608 51.5271 6.51725C51.5271 5.82732 52.087 5.26855 52.7758 5.26855H56.5219V1.52242C56.5219 0.833592 57.0818 0.273712 57.7706 0.273712C58.4595 0.273712 59.0193 0.83249 59.0193 1.52242V5.26855H62.7655C63.4543 5.26855 64.0142 5.82732 64.0142 6.51725C64.0142 7.20608 63.4543 7.76596 62.7655 7.76596Z" fill="#FE9903"/>
<path fill-rule="evenodd" clip-rule="evenodd" d="M67.6029 13.2854H66.3233V14.565C66.3233 14.8008 66.1326 14.9915 65.8968 14.9915C65.6609 14.9915 65.4702 14.8008 65.4702 14.565V13.2854H64.1907C63.9548 13.2854 63.7642 13.0937 63.7642 12.8589C63.7642 12.623 63.9548 12.4324 64.1907 12.4324H65.4702V11.1528C65.4702 10.917 65.6609 10.7263 65.8968 10.7263C66.1326 10.7263 66.3233 10.917 66.3233 11.1528V12.4324H67.6029C67.8387 12.4324 68.0294 12.623 68.0294 12.8589C68.0294 13.0937 67.8387 13.2854 67.6029 13.2854Z" fill="#FE9903"/>
</svg>
