<svg width="76" height="76" viewBox="0 0 76 76" fill="none" xmlns="http://www.w3.org/2000/svg">
<path fill-rule="evenodd" clip-rule="evenodd" d="M38.1593 0.557556C58.7504 0.557556 75.5973 17.4044 75.5973 37.9955C75.5973 58.5865 58.7504 75.4334 38.1593 75.4334C17.5683 75.4334 0.721436 58.5865 0.721436 37.9955C0.721436 17.4044 17.5683 0.557556 38.1593 0.557556Z" fill="#FFFAF5"/>
<path fill-rule="evenodd" clip-rule="evenodd" d="M38.164 14.4962L38.1235 61.4453L50.7677 61.5352L54.6108 61.4453C54.5658 59.4721 53.9545 56.4605 53.6489 54.3704C52.9207 49.3361 50.6193 35.7481 50.7991 32.332C50.9519 33.141 52.3633 37.6989 52.7184 38.1169L63.4522 35.357C62.8499 32.7635 61.9554 30.0126 61.2317 27.455L57.8336 15.4851C57.4201 14.4063 52.6375 12.4511 51.3924 11.8353C49.4057 10.8509 49.7158 10.8509 47.1448 10.8509V7.28645L39.9395 7.25049L39.899 14.4468L38.164 14.5007V14.4962Z" fill="#FE9903"/>
<path fill-rule="evenodd" clip-rule="evenodd" d="M12.7228 35.5952C13.7791 35.0738 16.6603 36.2649 18.0582 36.6155C19.9281 37.0875 21.8519 37.6673 23.6993 38.0584L25.4882 32.6465C25.8119 37.0021 21.7395 57.3954 21.7665 61.4228H25.3804L25.4253 68.2775C25.5062 68.6821 25.5152 68.6326 25.6051 68.7854V61.4498L38.1413 61.4453L38.1818 14.4962L36.3614 14.4468L36.3838 7.21448L29.1561 7.26392V10.8284C26.5221 11.0936 27.412 10.6666 25.1781 11.7768L19.1235 14.7434C18.3908 15.1704 18.8223 14.667 18.4807 15.4176C18.1121 16.2402 17.6087 18.5191 17.321 19.5215C16.3951 22.7398 13.5498 33.4287 12.7183 35.5952H12.7228Z" fill="#FFB342"/>
<path fill-rule="evenodd" clip-rule="evenodd" d="M25.6096 68.7855L38.1593 68.7496L38.1459 61.4454L25.6096 61.4499V68.7855Z" fill="#596C76"/>
<path fill-rule="evenodd" clip-rule="evenodd" d="M38.1369 68.7496L50.772 68.7451V61.5353L38.1279 61.4454L38.1369 68.7496Z" fill="#242F41"/>
<path fill-rule="evenodd" clip-rule="evenodd" d="M12.7226 35.5953L10.7224 42.8995L21.2809 45.5245L23.6992 38.0585C21.8562 37.6629 19.9324 37.0876 18.0581 36.6156C16.6602 36.265 13.7789 35.0739 12.7226 35.5953Z" fill="#596C76"/>
<path fill-rule="evenodd" clip-rule="evenodd" d="M52.7454 38.1169L54.9389 45.5335L65.5513 42.9085L63.4792 35.3616L52.7454 38.1169Z" fill="#242F41"/>
<path fill-rule="evenodd" clip-rule="evenodd" d="M38.1864 14.4962L38.1594 7.24143L36.3839 7.20996L36.366 14.4467L38.1864 14.4962Z" fill="#242F41"/>
<path fill-rule="evenodd" clip-rule="evenodd" d="M38.1639 14.4962L39.9035 14.4423L39.9439 7.24595L38.137 7.24146L38.1639 14.4962Z" fill="#242F41"/>
<path fill-rule="evenodd" clip-rule="evenodd" d="M66.2209 8.31566H62.7599V11.7767C62.7599 12.415 62.243 12.9319 61.6047 12.9319C60.9664 12.9319 60.4495 12.415 60.4495 11.7767V8.31566H56.9884C56.3502 8.31566 55.8333 7.79875 55.8333 7.16047C55.8333 6.5222 56.3502 6.00529 56.9884 6.00529H60.4495V2.54422C60.4495 1.90595 60.9664 1.38904 61.6047 1.38904C62.243 1.38904 62.7599 1.90595 62.7599 2.54422V6.00529H66.2209C66.8592 6.00529 67.3761 6.5222 67.3761 7.16047C67.3761 7.79875 66.8592 8.31566 66.2209 8.31566Z" fill="#FE9903"/>
<path fill-rule="evenodd" clip-rule="evenodd" d="M70.6889 13.4129H69.5067V14.5951C69.5067 14.8108 69.3314 14.9906 69.1112 14.9906C68.8954 14.9906 68.7156 14.8153 68.7156 14.5951V13.4129H67.5335C67.3177 13.4129 67.1379 13.2376 67.1379 13.0174C67.1379 12.8016 67.3132 12.6218 67.5335 12.6218H68.7156V11.4397C68.7156 11.2239 68.8909 11.0441 69.1112 11.0441C69.3269 11.0441 69.5067 11.2194 69.5067 11.4397V12.6218H70.6889C70.9047 12.6218 71.0844 12.7971 71.0844 13.0174C71.0844 13.2331 70.9092 13.4129 70.6889 13.4129Z" fill="#FE9903"/>
</svg>
