<svg width="28" height="28" viewBox="0 0 28 28" fill="none" xmlns="http://www.w3.org/2000/svg">
<g clip-path="url(#clip0)">
<path d="M16.6249 16.625H15.1666V12.8334C15.1666 12.1894 14.6451 11.6667 13.9999 11.6667C13.3548 11.6667 12.8333 12.1894 12.8333 12.8334V16.625H11.3749C10.5979 16.625 10.2071 17.5689 10.7566 18.1184L13.3816 20.7434C13.5519 20.9149 13.7771 21 13.9999 21C14.2228 21 14.4479 20.9149 14.6183 20.7434L17.2433 18.1184C17.7928 17.5689 17.4019 16.625 16.6249 16.625Z" fill="#333333"/>
<path d="M17.4998 25.6667H10.4998C9.21184 25.6667 8.1665 24.6202 8.1665 23.3333V22.1667C8.1665 21.5227 8.688 21 9.33317 21C9.97834 21 10.4998 21.5227 10.4998 22.1667V23.3333H17.4998V22.1667C17.4998 21.5227 18.0213 21 18.6665 21C19.3117 21 19.8332 21.5227 19.8332 22.1667V23.3333C19.8332 24.6202 18.7878 25.6667 17.4998 25.6667Z" fill="#333333"/>
<path d="M25.0833 4.66665H11.9082L9.74633 2.50365C9.63667 2.39515 9.4885 2.33331 9.33333 2.33331H2.91667C1.30783 2.33331 0 3.64231 0 5.24998V20.4166C0 22.0243 1.30783 23.3333 2.91667 23.3333H5.83333V22.1666C5.83333 20.5438 6.9475 19.1893 8.44783 18.7938C8.099 18.0075 8.06867 17.101 8.41283 16.2715C8.7955 15.3475 9.57133 14.6743 10.5 14.413V12.8333C10.5 10.9036 12.0703 9.33331 14 9.33331C15.9297 9.33331 17.5 10.9036 17.5 12.8333V14.413C18.4287 14.6755 19.2045 15.3486 19.5872 16.2726C19.9313 17.1021 19.901 18.0086 19.5533 18.795C21.0525 19.1893 22.1667 20.5438 22.1667 22.1666V23.3333H25.0833C26.6922 23.3333 28 22.0243 28 20.4166V7.58331C28 5.97565 26.6922 4.66665 25.0833 4.66665Z" fill="#333333"/>
<path d="M13.9999 11.6667C13.3548 11.6667 12.8333 12.1894 12.8333 12.8334V16.625H11.3749C10.5979 16.625 10.2071 17.5689 10.7566 18.1184L13.3816 20.7434C13.5519 20.9149 13.7771 21 13.9999 21V11.6667Z" fill="#333333"/>
<path d="M9.33317 21C8.688 21 8.1665 21.5227 8.1665 22.1667V23.3333C8.1665 24.6202 9.213 25.6667 10.4998 25.6667H13.9998V23.3333H10.4998V22.1667C10.4998 21.5227 9.97834 21 9.33317 21Z" fill="#333333"/>
<path d="M9.33333 2.33331H2.91667C1.30783 2.33331 0 3.64231 0 5.24998V20.4166C0 22.0243 1.30783 23.3333 2.91667 23.3333H5.83333V22.1666C5.83333 20.5438 6.9475 19.1893 8.44783 18.7938C8.099 18.0075 8.06867 17.101 8.41283 16.2715C8.7955 15.3475 9.57133 14.6743 10.5 14.413V12.8333C10.5 10.9036 12.0703 9.33331 14 9.33331V4.66665H11.9082L9.74633 2.50365C9.63667 2.39515 9.4885 2.33331 9.33333 2.33331Z" fill="#333333"/>
</g>
<defs>
<clipPath id="clip0">
<rect width="28" height="28" fill="white"/>
</clipPath>
</defs>
</svg>
