<svg width="28" height="20" viewBox="0 0 28 20" fill="none" xmlns="http://www.w3.org/2000/svg">
<path d="M27.1797 0.976562H8.27121V3.4375C8.27121 3.89091 7.90431 4.25781 7.4509 4.25781C6.99748 4.25781 6.63059 3.89091 6.63059 3.4375V0.976562H0.820312C0.366898 0.976562 0 1.34346 0 1.79688V6.71875C0 7.17216 0.366898 7.53906 0.820312 7.53906C2.17733 7.53906 3.28125 8.64298 3.28125 10C3.28125 11.357 2.17733 12.4609 0.820312 12.4609C0.366898 12.4609 0 12.8278 0 13.2812V18.2031C0 18.6565 0.366898 19.0234 0.820312 19.0234H6.5625V16.5625C6.5625 16.1091 6.9294 15.7422 7.38281 15.7422C7.83623 15.7422 8.20312 16.1091 8.20312 16.5625V19.0234H27.1797C27.6331 19.0234 28 18.6565 28 18.2031V1.79688C28 1.34346 27.6331 0.976562 27.1797 0.976562ZM8.20312 13.2812C8.20312 13.7347 7.83623 14.1016 7.38281 14.1016C6.9294 14.1016 6.5625 13.7347 6.5625 13.2812V11.6406C6.5625 11.1872 6.9294 10.8203 7.38281 10.8203C7.83623 10.8203 8.20312 11.1872 8.20312 11.6406V13.2812ZM8.20312 8.35938C8.20312 8.81279 7.83623 9.17969 7.38281 9.17969C6.9294 9.17969 6.5625 8.81279 6.5625 8.35938V6.71875C6.5625 6.26534 6.9294 5.89844 7.38281 5.89844C7.83623 5.89844 8.20312 6.26534 8.20312 6.71875V8.35938ZM13.2344 6.71875C13.2344 5.36173 14.3383 4.25781 15.6953 4.25781C17.0523 4.25781 18.1562 5.36173 18.1562 6.71875C18.1562 8.07577 17.0523 9.17969 15.6953 9.17969C14.3383 9.17969 13.2344 8.07577 13.2344 6.71875ZM15.2403 15.6044C14.863 15.3528 14.7612 14.8442 15.0128 14.4668L21.5753 4.62307C21.8261 4.24578 22.3348 4.14483 22.7129 4.39557C23.0902 4.64713 23.1919 5.15578 22.9404 5.53313L16.3779 15.3769C16.1304 15.7486 15.6236 15.8585 15.2403 15.6044ZM22.2578 15.7422C20.9008 15.7422 19.7969 14.6383 19.7969 13.2812C19.7969 11.9242 20.9008 10.8203 22.2578 10.8203C23.6148 10.8203 24.7188 11.9242 24.7188 13.2812C24.7188 14.6383 23.6148 15.7422 22.2578 15.7422Z" fill="#333333"/>
</svg>
