<svg width="20" height="30" viewBox="0 0 20 30" fill="none" xmlns="http://www.w3.org/2000/svg">
<path d="M12.541 19H5.45312C3.81611 19 2.48438 17.6683 2.48438 16.0312V5.97461C2.48438 4.33759 3.81611 3.00586 5.45312 3.00586H12.541C14.178 3.00586 15.5098 4.33759 15.5098 5.97461V16.0312C15.5098 17.6683 14.178 19 12.541 19ZM5.45312 4.49023C4.63469 4.49023 3.96875 5.15617 3.96875 5.97461V16.0312C3.96875 16.8497 4.63469 17.5156 5.45312 17.5156H12.541C13.3595 17.5156 14.0254 16.8497 14.0254 16.0312V5.97461C14.0254 5.15617 13.3595 4.49023 12.541 4.49023H5.45312ZM18.4785 14.1758V2.96875C18.4785 1.33173 17.1468 0 15.5098 0H7.27148C6.86154 0 6.5293 0.332245 6.5293 0.742188C6.5293 1.15213 6.86154 1.48438 7.27148 1.48438H15.5098C16.3282 1.48438 16.9941 2.15031 16.9941 2.96875V14.1758C16.9941 14.5857 17.3264 14.918 17.7363 14.918C18.1463 14.918 18.4785 14.5857 18.4785 14.1758Z" fill="#313131"/>
<path d="M4.42578 26.6016C4.42578 26.2865 4.3151 26.0378 4.09375 25.8555C3.8724 25.6706 3.46745 25.4961 2.87891 25.332C2.29036 25.1654 1.86068 24.9844 1.58984 24.7891C1.20443 24.513 1.01172 24.151 1.01172 23.7031C1.01172 23.2682 1.1901 22.9154 1.54688 22.6445C1.90625 22.3711 2.36458 22.2344 2.92188 22.2344C3.29948 22.2344 3.63672 22.3073 3.93359 22.4531C4.23307 22.599 4.46484 22.8021 4.62891 23.0625C4.79297 23.3229 4.875 23.6133 4.875 23.9336H4.39062C4.39062 23.5456 4.25781 23.2344 3.99219 23C3.72656 22.763 3.36979 22.6445 2.92188 22.6445C2.48698 22.6445 2.14062 22.7422 1.88281 22.9375C1.625 23.1302 1.49609 23.3828 1.49609 23.6953C1.49609 23.9844 1.61198 24.2201 1.84375 24.4023C2.07552 24.5846 2.44661 24.7461 2.95703 24.8867C3.46745 25.0247 3.85417 25.1693 4.11719 25.3203C4.38021 25.4688 4.57812 25.6471 4.71094 25.8555C4.84375 26.0638 4.91016 26.3099 4.91016 26.5938C4.91016 27.0417 4.73047 27.401 4.37109 27.6719C4.01432 27.9427 3.54297 28.0781 2.95703 28.0781C2.55599 28.0781 2.1875 28.0065 1.85156 27.8633C1.51823 27.7201 1.26432 27.5195 1.08984 27.2617C0.917969 27.0039 0.832031 26.7083 0.832031 26.375H1.3125C1.3125 26.776 1.46224 27.0924 1.76172 27.3242C2.0612 27.556 2.45964 27.6719 2.95703 27.6719C3.39974 27.6719 3.75521 27.5742 4.02344 27.3789C4.29167 27.1836 4.42578 26.9245 4.42578 26.6016ZM8.50781 28C8.46094 27.8672 8.43099 27.6706 8.41797 27.4102C8.25391 27.6237 8.04427 27.7891 7.78906 27.9062C7.53646 28.0208 7.26823 28.0781 6.98438 28.0781C6.57812 28.0781 6.2487 27.9648 5.99609 27.7383C5.74609 27.5117 5.62109 27.2253 5.62109 26.8789C5.62109 26.4674 5.79167 26.1419 6.13281 25.9023C6.47656 25.6628 6.95443 25.543 7.56641 25.543H8.41406V25.0625C8.41406 24.7604 8.32031 24.5234 8.13281 24.3516C7.94792 24.1771 7.67708 24.0898 7.32031 24.0898C6.99479 24.0898 6.72526 24.1732 6.51172 24.3398C6.29818 24.5065 6.19141 24.707 6.19141 24.9414L5.72266 24.9375C5.72266 24.6016 5.87891 24.3112 6.19141 24.0664C6.50391 23.819 6.88802 23.6953 7.34375 23.6953C7.8151 23.6953 8.1862 23.8138 8.45703 24.0508C8.73047 24.2852 8.87109 24.6133 8.87891 25.0352V27.0352C8.87891 27.444 8.92188 27.75 9.00781 27.9531V28H8.50781ZM7.03906 27.6641C7.35156 27.6641 7.63021 27.5885 7.875 27.4375C8.1224 27.2865 8.30208 27.0846 8.41406 26.832V25.9023H7.57812C7.11198 25.9076 6.7474 25.9935 6.48438 26.1602C6.22135 26.3242 6.08984 26.5508 6.08984 26.8398C6.08984 27.0768 6.17708 27.2734 6.35156 27.4297C6.52865 27.5859 6.75781 27.6641 7.03906 27.6641ZM10.6523 28H10.1836V22H10.6523V28ZM12.4492 28H11.9805V23.7734H12.4492V28ZM11.8984 22.5508C11.8984 22.4622 11.9271 22.388 11.9844 22.3281C12.0417 22.2656 12.1198 22.2344 12.2188 22.2344C12.3177 22.2344 12.3958 22.2656 12.4531 22.3281C12.513 22.388 12.543 22.4622 12.543 22.5508C12.543 22.6393 12.513 22.7135 12.4531 22.7734C12.3958 22.8333 12.3177 22.8633 12.2188 22.8633C12.1198 22.8633 12.0417 22.8333 11.9844 22.7734C11.9271 22.7135 11.8984 22.6393 11.8984 22.5508ZM14.168 23.7734L14.1836 24.4961C14.3424 24.2357 14.5404 24.0378 14.7773 23.9023C15.0143 23.7643 15.276 23.6953 15.5625 23.6953C16.0156 23.6953 16.3529 23.8229 16.5742 24.0781C16.7956 24.3333 16.9076 24.7161 16.9102 25.2266V28H16.4453V25.2227C16.4427 24.8451 16.362 24.5638 16.2031 24.3789C16.0469 24.194 15.7956 24.1016 15.4492 24.1016C15.1602 24.1016 14.9036 24.1927 14.6797 24.375C14.4583 24.5547 14.2943 24.7982 14.1875 25.1055V28H13.7227V23.7734H14.168Z" fill="#313131"/>
</svg>
