<svg width="39" height="39" viewBox="0 0 39 39" fill="none" xmlns="http://www.w3.org/2000/svg">
<path d="M19.5 33C16.3687 33 13.4262 32.1783 10.875 30.7405V37.875C10.875 38.2568 11.0686 38.6125 11.3892 38.8197C11.7096 39.027 12.1135 39.0575 12.4617 38.9009L19.5 35.7337L26.5384 38.9009C26.6858 38.9672 26.8431 39 26.9999 39C27.2135 39 27.426 38.9392 27.6109 38.8197C27.9314 38.6125 28.125 38.2567 28.125 37.875V30.7405C25.5738 32.1782 22.6313 33 19.5 33Z" fill="#078105"/>
<path d="M23.9065 14.8467L25.4546 11.937L22.1607 11.8228C21.7868 11.8099 21.4436 11.6117 21.2455 11.2943L19.4997 8.4989L17.754 11.2944C17.5558 11.6118 17.2127 11.8099 16.8387 11.8229L13.5449 11.9371L15.093 14.8467C15.2688 15.177 15.2688 15.5731 15.093 15.9035L13.5449 18.8131L16.8387 18.9273C17.2127 18.9402 17.5558 19.1384 17.754 19.4558L19.4997 22.2512L21.2455 19.4557C21.4437 19.1383 21.7868 18.9402 22.1607 18.9272L25.4546 18.813L23.9065 15.9034C23.7307 15.5731 23.7307 15.177 23.9065 14.8467Z" fill="#292929"/>
<path d="M19.5 0C11.0222 0 4.125 6.89713 4.125 15.375C4.125 20.722 6.86924 25.4394 11.0227 28.195C11.0639 28.2223 11.105 28.2496 11.1465 28.2766C11.1967 28.3091 11.247 28.3415 11.2976 28.3734C11.3395 28.4 11.3816 28.4261 11.4237 28.4523C11.4739 28.4833 11.5239 28.5146 11.5745 28.5451C11.6416 28.5857 11.7094 28.6256 11.7772 28.6652C11.8406 28.7021 11.9044 28.7385 11.9684 28.7746C12.0143 28.8005 12.0601 28.8263 12.1061 28.8517C12.1567 28.8795 12.2074 28.9071 12.2583 28.9343C12.3054 28.9596 12.3528 28.9845 12.4002 29.0093C12.4497 29.0352 12.499 29.0612 12.5488 29.0865C12.6277 29.1267 12.7071 29.1661 12.7866 29.2049C12.8413 29.2316 12.8964 29.2576 12.9516 29.2837C13.0046 29.3087 13.0576 29.3337 13.1109 29.3582C13.1602 29.3809 13.2097 29.4031 13.2593 29.4252C13.3131 29.4492 13.367 29.4727 13.4211 29.496C13.4685 29.5165 13.5158 29.5372 13.5635 29.5571C13.6565 29.5962 13.7498 29.6345 13.8437 29.6718C13.885 29.6881 13.9265 29.7037 13.9679 29.7198C14.0308 29.7441 14.0937 29.7682 14.1569 29.7917C14.2036 29.8091 14.2506 29.8262 14.2975 29.8431C14.3591 29.8653 14.4211 29.8871 14.483 29.9086C14.527 29.9238 14.5711 29.9393 14.6152 29.9541C14.7146 29.9875 14.8142 30.02 14.9144 30.0515C14.9484 30.0621 14.9828 30.0721 15.0168 30.0826C15.0909 30.1052 15.1652 30.1275 15.2398 30.149C15.2833 30.1615 15.327 30.1738 15.3707 30.186C15.4403 30.2054 15.51 30.2242 15.5799 30.2427C15.6206 30.2534 15.661 30.2643 15.7018 30.2747C15.8072 30.3016 15.913 30.3276 16.0193 30.3524C16.0446 30.3582 16.0702 30.3636 16.0955 30.3693C16.1819 30.389 16.2685 30.408 16.3555 30.4261C16.3956 30.4345 16.4358 30.4425 16.476 30.4505C16.553 30.466 16.6301 30.4808 16.7076 30.495C16.7451 30.502 16.7826 30.509 16.8203 30.5157C16.9312 30.5352 17.0425 30.554 17.1543 30.5712C17.1706 30.5736 17.1869 30.5758 17.2032 30.5783C17.3017 30.5931 17.4006 30.6069 17.4996 30.6199C17.537 30.6248 17.5747 30.6294 17.6121 30.634C17.6949 30.6442 17.7778 30.6536 17.861 30.6625C17.8969 30.6663 17.9326 30.6702 17.9685 30.6738C18.0838 30.6853 18.1995 30.6958 18.3156 30.7047C18.3234 30.7053 18.3314 30.7057 18.3392 30.7063C18.4487 30.7145 18.5585 30.7214 18.6686 30.7273C18.7044 30.7293 18.7403 30.7308 18.7763 30.7325C18.863 30.7365 18.9497 30.7398 19.0369 30.7424C19.0723 30.7434 19.1077 30.7446 19.1431 30.7454C19.2619 30.7481 19.3807 30.7499 19.5001 30.7499C19.6196 30.7499 19.7384 30.7481 19.8572 30.7454C19.8927 30.7446 19.928 30.7434 19.9634 30.7424C20.0505 30.7398 20.1373 30.7364 20.224 30.7325C20.26 30.7308 20.2958 30.7293 20.3317 30.7273C20.4418 30.7213 20.5517 30.7146 20.6611 30.7063C20.6688 30.7057 20.6768 30.7053 20.6847 30.7047C20.8008 30.6958 20.9164 30.6853 21.0318 30.6738C21.0678 30.6702 21.1035 30.6663 21.1393 30.6625C21.2225 30.6536 21.3054 30.6441 21.3881 30.634C21.4256 30.6293 21.4632 30.6248 21.5006 30.6199C21.5998 30.6071 21.6985 30.5931 21.7971 30.5783C21.8134 30.5758 21.8297 30.5737 21.846 30.5712C21.9578 30.5541 22.069 30.5352 22.18 30.5157C22.2176 30.509 22.2551 30.502 22.2927 30.495C22.3701 30.4808 22.4472 30.4659 22.5242 30.4505C22.5645 30.4425 22.6048 30.4344 22.6447 30.4261C22.7317 30.408 22.8183 30.389 22.9047 30.3693C22.9301 30.3636 22.9556 30.3582 22.9809 30.3524C23.0871 30.3277 23.193 30.3016 23.2985 30.2747C23.3392 30.2642 23.3797 30.2533 23.4203 30.2427C23.4903 30.2242 23.5599 30.2053 23.6295 30.186C23.6732 30.1737 23.7169 30.1615 23.7604 30.149C23.835 30.1274 23.9093 30.1052 23.9834 30.0826C24.0175 30.0721 24.0518 30.0621 24.0858 30.0515C24.1859 30.0201 24.2856 29.9875 24.385 29.9541C24.4292 29.9393 24.4732 29.9238 24.5172 29.9086C24.5792 29.8871 24.6411 29.8654 24.7027 29.8431C24.7496 29.8261 24.7965 29.8091 24.8433 29.7917C24.9065 29.7682 24.9694 29.7441 25.0323 29.7198C25.0737 29.7037 25.1153 29.6881 25.1565 29.6718C25.2504 29.6345 25.3437 29.5962 25.4366 29.5571C25.4843 29.5371 25.5317 29.5164 25.5792 29.4959C25.6332 29.4726 25.6871 29.449 25.7408 29.4251C25.7904 29.403 25.8399 29.3807 25.8892 29.3582C25.9425 29.3337 25.9955 29.3087 26.0486 29.2836C26.1037 29.2575 26.1588 29.2316 26.2135 29.2048C26.2932 29.166 26.3724 29.1266 26.4513 29.0865C26.5011 29.0611 26.5505 29.0351 26.5999 29.0092C26.6473 28.9845 26.6947 28.9596 26.7417 28.9343C26.7926 28.907 26.8433 28.8795 26.8939 28.8516C26.9401 28.8262 26.9859 28.8004 27.0316 28.7745C27.0956 28.7384 27.1594 28.7021 27.2228 28.6651C27.2907 28.6255 27.3584 28.5856 27.4256 28.545C27.4762 28.5145 27.5261 28.4833 27.5763 28.4522C27.6185 28.426 27.6607 28.3999 27.7025 28.3733C27.7531 28.3413 27.8033 28.309 27.8535 28.2765C27.895 28.2496 27.9362 28.2223 27.9774 28.1949C32.1308 25.4393 34.875 20.7219 34.875 15.3749C34.875 6.89714 27.9778 0 19.5 0ZM28.2874 19.3466C28.4698 19.6891 28.4625 20.1015 28.2685 20.4374C28.0745 20.7734 27.721 20.9859 27.3332 20.9993L22.8372 21.1551L20.4543 24.9708C20.2487 25.2999 19.8881 25.4999 19.5001 25.4999C19.112 25.4999 18.7514 25.2999 18.5459 24.9708L16.163 21.1551L11.6669 20.9993C11.2791 20.9859 10.9256 20.7734 10.7316 20.4374C10.5376 20.1015 10.5304 19.6891 10.7127 19.3466L12.8258 15.375L10.7127 11.4034C10.5304 11.0608 10.5376 10.6485 10.7316 10.3125C10.9256 9.97653 11.2791 9.76409 11.6669 9.75069L16.163 9.59491L18.5459 5.77916C18.7514 5.4501 19.112 5.25007 19.5001 5.25007C19.8881 5.25007 20.2487 5.4501 20.4543 5.77916L22.8372 9.59491L27.3332 9.75069C27.721 9.76409 28.0745 9.97653 28.2685 10.3125C28.4625 10.6485 28.4698 11.0608 28.2874 11.4034L26.1743 15.375L28.2874 19.3466Z" fill="#FF9903"/>
</svg>
