<svg width="44" height="44" viewBox="0 0 44 44" fill="none" xmlns="http://www.w3.org/2000/svg">
<path d="M22 44C34.1503 44 44 34.1503 44 22C44 9.84974 34.1503 0 22 0C9.84974 0 0 9.84974 0 22C0 34.1503 9.84974 44 22 44Z" fill="#039BE5"/>
<path d="M10.0666 21.5233L31.2782 13.3448C32.2627 12.9892 33.1226 13.585 32.8036 15.0737L32.8054 15.0718L29.1937 32.087C28.9261 33.2934 28.2092 33.5867 27.2064 33.0184L21.7064 28.9649L19.0536 31.5205C18.7602 31.8139 18.5127 32.0614 17.9444 32.0614L18.3349 26.4642L28.5282 17.2553C28.9719 16.8648 28.4292 16.6448 27.8444 17.0335L15.2476 24.9645L9.81725 23.2705C8.63842 22.8965 8.61275 22.0917 10.0666 21.5233Z" fill="white"/>
</svg>
