<svg width="44" height="44" viewBox="0 0 44 44" fill="none" xmlns="http://www.w3.org/2000/svg">
<path d="M22.0008 43.9996C34.1509 43.9996 44.0006 34.15 44.0006 21.9998C44.0006 9.84965 34.1509 0 22.0008 0C9.85063 0 0.000976562 9.84965 0.000976562 21.9998C0.000976562 34.15 9.85063 43.9996 22.0008 43.9996Z" fill="#55ACEE"/>
<path d="M35.4758 15.8106C34.533 16.2287 33.5188 16.5114 32.4553 16.6377C33.5412 15.9871 34.3745 14.9576 34.7679 13.729C33.7518 14.3318 32.6259 14.769 31.4286 15.0047C30.4693 13.9831 29.1026 13.3447 27.5893 13.3447C24.6857 13.3447 22.3307 15.6996 22.3307 18.6032C22.3307 19.0154 22.3774 19.4166 22.4676 19.8017C18.0973 19.5825 14.2222 17.4891 11.6285 14.3067C11.1759 15.0831 10.9163 15.9871 10.9163 16.9506C10.9163 18.7746 11.8453 20.3849 13.2556 21.3276C12.394 21.3006 11.5826 21.0641 10.8739 20.6692C10.8735 20.6915 10.8735 20.7139 10.8735 20.7358C10.8735 23.2838 12.6869 25.4089 15.0921 25.8917C14.6513 26.0125 14.1858 26.0764 13.7069 26.0764C13.3673 26.0764 13.0383 26.0438 12.7175 25.9826C13.3865 28.0713 15.3282 29.5918 17.6298 29.6345C15.8297 31.0451 13.5626 31.8856 11.0982 31.8856C10.6747 31.8856 10.2551 31.8608 9.84448 31.8118C12.1704 33.3044 14.9352 34.1746 17.9047 34.1746C27.5771 34.1746 32.8667 26.1619 32.8667 19.2123C32.8667 18.9844 32.8616 18.7574 32.8514 18.5323C33.8796 17.7911 34.771 16.8652 35.4758 15.8106Z" fill="#F1F2F2"/>
</svg>
