<svg width="44" height="44" viewBox="0 0 44 44" fill="none" xmlns="http://www.w3.org/2000/svg">
<path d="M22.0055 0H21.9945C9.86425 0 0 9.867 0 22C0 26.8125 1.551 31.273 4.18825 34.8947L1.4465 43.0677L9.90275 40.3645C13.3815 42.669 17.5312 44 22.0055 44C34.1357 44 44 34.1302 44 22C44 9.86975 34.1357 0 22.0055 0Z" fill="#4CAF50"/>
<path d="M34.8069 31.0668C34.2761 32.5655 32.1696 33.8085 30.4894 34.1715C29.3399 34.4163 27.8384 34.6115 22.7839 32.516C16.3186 29.8375 12.1551 23.2678 11.8306 22.8415C11.5199 22.4153 9.21814 19.3628 9.21814 16.2058C9.21814 13.0488 10.8214 11.5115 11.4676 10.8515C11.9984 10.3098 12.8756 10.0623 13.7171 10.0623C13.9894 10.0623 14.2341 10.076 14.4541 10.087C15.1004 10.1145 15.4249 10.153 15.8511 11.1733C16.3819 12.452 17.6744 15.609 17.8284 15.9335C17.9851 16.258 18.1419 16.698 17.9219 17.1243C17.7156 17.5643 17.5341 17.7595 17.2096 18.1335C16.8851 18.5075 16.5771 18.7935 16.2526 19.195C15.9556 19.5443 15.6201 19.9183 15.9941 20.5645C16.3681 21.197 17.6606 23.3063 19.5636 25.0003C22.0194 27.1865 24.0104 27.885 24.7226 28.182C25.2534 28.402 25.8859 28.3498 26.2736 27.9373C26.7659 27.4065 27.3736 26.5265 27.9924 25.6603C28.4324 25.0388 28.9879 24.9618 29.5709 25.1818C30.1649 25.388 33.3081 26.9418 33.9544 27.2635C34.6006 27.588 35.0269 27.742 35.1836 28.0143C35.3376 28.2865 35.3376 29.5653 34.8069 31.0668Z" fill="#FAFAFA"/>
</svg>
